<?xml version="1.0" standalone="no"?>
<!DOCTYPE svg PUBLIC "-//W3C//DTD SVG 1.1//EN" "http://www.w3.org/Graphics/SVG/1.1/DTD/svg11.dtd" >
<svg xmlns="http://www.w3.org/2000/svg" xmlns:xlink="http://www.w3.org/1999/xlink" version="1.1">
<metadata></metadata>
<defs>
<font id="neuropol_xregular" horiz-adv-x="1181" >
<font-face units-per-em="2048" ascent="1638" descent="-410" />
<missing-glyph horiz-adv-x="528" />
<glyph horiz-adv-x="0" />
<glyph unicode="&#xd;" horiz-adv-x="424" />
<glyph unicode=" "  horiz-adv-x="528" />
<glyph unicode="&#x09;" horiz-adv-x="528" />
<glyph unicode="&#xa0;" horiz-adv-x="528" />
<glyph unicode="!" horiz-adv-x="408" d="M133 53q0 49 69 49q73 0 73 -49q0 -52 -73 -52q-69 0 -69 52zM154 222v654q0 38 50 38q51 0 51 -38v-654q0 -40 -53 -40q-48 0 -48 40z" />
<glyph unicode="&#x22;" horiz-adv-x="575" d="M146 647v236q0 38 44 38q47 0 47 -38v-236q0 -38 -46 -38q-45 0 -45 38zM334 647v236q0 38 44 38q47 0 47 -38v-236q0 -38 -46 -38q-45 0 -45 38z" />
<glyph unicode="#" horiz-adv-x="1103" d="M55 330q0 34 32 34h177l56 180h-169q-34 0 -34 40q0 34 34 34h192l81 261q4 12 13.5 18.5t21.5 6.5q30 0 47.5 -15t17.5 -30q0 -5 -2 -13l-71 -228h321l81 261q8 25 34 25q29 0 47 -14.5t18 -29.5q0 -4 -0.5 -7t-1.5 -7l-70 -228h127q32 0 32 -34q0 -40 -32 -40h-150 l-57 -180h145q32 0 32 -34q0 -40 -32 -40h-169l-80 -257q-7 -23 -32 -23q-30 0 -48.5 14.5t-18.5 30.5q0 4 2 12l71 223h-322l-80 -257q-7 -23 -33 -23q-31 0 -49 14.5t-18 28.5q0 6 3 14l70 223h-154q-32 0 -32 40zM372 364h321l56 180h-321z" />
<glyph unicode="$" horiz-adv-x="1121" d="M77 38q0 36 33 36h412v356h-90q-350 0 -350 204v52q0 223 305 223h135v41q0 40 54 40q48 0 48 -40v-448h76q372 0 372 -220v-74q0 -208 -334 -208h-114v-55q0 -37 -51 -37t-51 37v55h-412q-33 0 -33 38zM183 616q0 -114 225 -114h114v333h-157q-182 0 -182 -128v-91z M624 74h133q213 0 213 116v112q0 128 -252 128h-94v-356z" />
<glyph unicode="%" horiz-adv-x="1452" d="M75 637v104q0 168 264 168h40q249 0 249 -166v-106q0 -161 -249 -161h-40q-133 0 -198.5 39t-65.5 122zM168 637q0 -90 150 -90h82q131 0 131 90v118q0 80 -133 80h-81q-149 0 -149 -94v-104zM294 41q0 13 10 24l777 870q12 14 26 14q9 0 19.5 -5.5t20 -14t15.5 -18.5 t6 -19q0 -14 -10 -25l-778 -870q-10 -13 -25 -13q-9 0 -19.5 6t-19.5 14.5t-15.5 18.5t-6.5 18zM813 161v104q0 167 264 167h40q249 0 249 -166v-105q0 -161 -249 -161h-40q-133 0 -198.5 39t-65.5 122zM906 161q0 -87 150 -87h82q131 0 131 87v117q0 83 -133 83h-81 q-149 0 -149 -96v-104z" />
<glyph unicode="&#x26;" horiz-adv-x="1379" d="M114 190v42q0 46 17 80.5t50.5 61t83 48.5t115.5 43l39 12l-138 85q-33 20 -49 54.5t-16 81.5v27q0 184 298 184h173q287 0 287 -181v-28q0 -60 -29.5 -101.5t-95.5 -63.5l-246 -80l457 -277q40 64 40 164v78q0 37 46 37q50 0 50 -36v-77q0 -134 -58 -213l112 -67 q17 -11 17 -27q0 -14 -11.5 -29t-29.5 -15q-9 0 -25 8l-120 73q-98 -74 -283 -74h-323q-361 0 -361 190zM214 175q0 -101 239 -101h371q114 0 181 46l-498 304l-42 -14q-130 -40 -190.5 -78.5t-60.5 -81.5v-75zM313 679q0 -42 63 -85l140 -85l288 95q69 22 69 74v59 q0 98 -166 98h-219q-175 0 -175 -91v-65z" />
<glyph unicode="'" horiz-adv-x="389" d="M144 647v236q0 38 44 38q46 0 46 -38v-236q0 -38 -45 -38t-45 38z" />
<glyph unicode="(" horiz-adv-x="493" d="M121 86v752q0 159 199 159h26q31 0 31 -36q0 -38 -31 -38q-125 0 -125 -85v-749q0 -103 125 -103q31 0 31 -37t-31 -37h-18q-207 0 -207 174z" />
<glyph unicode=")" horiz-adv-x="490" d="M110 -51q0 37 31 37q125 0 125 103v749q0 85 -124 85q-32 0 -32 38q0 36 32 36h25q199 0 199 -159v-752q0 -174 -206 -174h-18q-32 0 -32 37z" />
<glyph unicode="*" horiz-adv-x="725" d="M76 559q0 26 24 33l167 49l51 30l-50 29l-167 52q-12 4 -17.5 13.5t-5.5 20.5q0 13 5.5 28t14.5 27t20.5 20t23.5 8q11 0 22 -9l126 -120l51 -29v52l-39 172q0 2 -0.5 3t-0.5 3q0 20 19.5 30t44.5 10q24 0 44 -9t20 -28q0 -6 -1 -9l-41 -169v-55l45 26l130 120q8 8 20 8 t23.5 -9t21 -22t15 -28.5t5.5 -28.5q0 -23 -22 -29l-168 -50l-48 -27l46 -26l168 -53q12 -4 17 -13t5 -21q0 -13 -6 -28t-15 -27.5t-20.5 -20.5t-22.5 -8t-20 9l-127 121l-47 27v-57l39 -171v-6q0 -20 -19.5 -30.5t-44.5 -10.5q-24 0 -43.5 9.5t-19.5 28.5q0 6 1 9l41 169 v59l-50 -28l-128 -120q-8 -8 -21 -8q-12 0 -23.5 8t-21 20.5t-15.5 27.5t-6 28z" />
<glyph unicode="+" horiz-adv-x="535" d="M24 453q0 35 30 35h163v114q0 36 47 36q49 0 49 -36v-114h169q28 0 28 -35q0 -36 -28 -36h-169v-117q0 -38 -45 -38q-49 0 -49 38v117h-165q-30 0 -30 36z" />
<glyph unicode="," horiz-adv-x="255" d="M59 -110q0 6 1 9l42 226q4 22 22.5 33.5t37.5 11.5q17 0 30 -8t13 -25q0 -4 -2 -12l-57 -226q-5 -21 -21 -31t-32 -10q-14 0 -24 7.5t-10 24.5z" />
<glyph unicode="-" horiz-adv-x="852" d="M143 374q0 32 34 32h502q28 0 28 -30q0 -33 -28 -33h-502q-34 0 -34 31z" />
<glyph unicode="." horiz-adv-x="379" d="M116 53q0 49 71 49q72 0 72 -49q0 -52 -72 -52q-71 0 -71 52z" />
<glyph unicode="/" horiz-adv-x="1045" d="M63 25q0 18 13 31l829 855q15 15 37 15q49 0 49 -43q0 -18 -17 -35l-841 -855q-13 -13 -28 -13q-42 0 -42 45z" />
<glyph unicode="0" horiz-adv-x="1324" d="M133 238v409q0 262 366 262h331q361 0 361 -262v-386q0 -261 -364 -261h-330q-364 0 -364 238zM233 220q0 -146 227 -146h405q224 0 224 147v442q0 172 -224 172h-405q-226 0 -226 -172z" />
<glyph unicode="1" horiz-adv-x="367" d="M133 33v843q0 38 50 38q51 0 51 -38v-843q0 -39 -52 -39q-49 0 -49 39z" />
<glyph unicode="2" horiz-adv-x="1392" d="M133 28v254q0 204 373 204h450q199 0 199 127v98q0 124 -187 124h-239q-38 0 -38 37t38 37h219q310 0 310 -216v-63q0 -217 -319 -217h-459q-247 0 -247 -129v-210h995q31 0 31 -37t-31 -37h-1069q-26 0 -26 28z" />
<glyph unicode="3" horiz-adv-x="1283" d="M10 462q0 40 40 40h769q38 0 78.5 7.5t74 22.5t55 38t21.5 55v92q0 118 -233 118h-181q-40 0 -40 37t40 37h144q372 0 372 -199v-57q0 -147 -169 -184q169 -28 169 -192v-55q0 -222 -361 -222h-739q-39 0 -39 37t39 37h763q235 0 235 141v93q0 31 -19.5 53t-51.5 36.5 t-73.5 21.5t-85.5 7h-768q-40 0 -40 36z" />
<glyph unicode="4" horiz-adv-x="1417" d="M90 307v569q0 38 50 38q49 0 49 -38v-530h993v530q0 38 51 38t51 -38v-843q0 -39 -51 -39t-51 39v216h-1038q-54 0 -54 58z" />
<glyph unicode="5" horiz-adv-x="1370" d="M81 36q0 38 36 38h746q273 0 273 137v143q0 149 -225 149h-794q-25 0 -25 26v353q0 27 25 27h557q37 0 37 -37t-37 -37h-483v-260h694q352 0 352 -221v-143q0 -211 -385 -211h-735q-36 0 -36 36z" />
<glyph unicode="6" horiz-adv-x="1391" d="M133 207v487q0 214 433 214h131q37 0 37 -36q0 -37 -37 -37h-191q-270 0 -270 -159v-97h686q379 0 379 -216v-152q0 -211 -346 -211h-450q-372 0 -372 207zM236 228q0 -154 248 -154h495q222 0 222 138v148q0 145 -253 145h-712v-277z" />
<glyph unicode="7" horiz-adv-x="1180" d="M17 876q0 33 35 33h1024q31 0 47.5 -13.5t16.5 -33.5q0 -22 -17 -42l-648 -805q-7 -8 -14.5 -11.5t-15.5 -3.5q-18 0 -32 13t-14 33q0 14 13 30l611 759h-971q-35 0 -35 41z" />
<glyph unicode="8" horiz-adv-x="1416" d="M133 208v66q0 152 192 191q-175 37 -175 159l-2 70q0 108 90.5 161.5t277.5 53.5h381q364 0 364 -215v-73q0 -119 -168 -156q190 -39 190 -191v-62q0 -212 -364 -212h-423q-363 0 -363 208zM232 186q0 -112 240 -112h469q240 0 240 113v106q0 133 -240 133h-469 q-240 0 -240 -133v-107zM251 614q0 -57 55 -84t166 -27h470q219 0 219 109v104q0 119 -219 119h-470q-221 0 -221 -119v-102z" />
<glyph unicode="9" horiz-adv-x="1316" d="M90 546v155q0 208 346 208h379q368 0 368 -249v-444q0 -216 -351 -216h-165q-40 0 -40 37t40 37h138q280 0 280 155v102h-615q-380 0 -380 215zM191 549q0 -72 64 -107.5t190 -35.5h640v274q0 155 -245 155h-435q-214 0 -214 -138v-148z" />
<glyph unicode=":" horiz-adv-x="404" d="M129 57q0 50 69 50q73 0 73 -50t-71 -50t-71 50zM129 433q0 50 69 50q73 0 73 -50t-71 -50t-71 50z" />
<glyph unicode=";" horiz-adv-x="287" d="M70 -110q0 6 1 9l42 226q4 22 22.5 33.5t37.5 11.5q17 0 30 -8t13 -25q0 -4 -2 -12l-57 -226q-5 -21 -21 -31t-32 -10q-14 0 -24 7.5t-10 24.5zM92 430q0 52 69 52q72 0 72 -52q0 -49 -70 -49q-71 0 -71 49z" />
<glyph unicode="&#x3c;" horiz-adv-x="656" d="M9 399q0 14 5.5 21.5t16.5 12.5l455 215q10 5 22 5q20 0 33 -14t13 -31q0 -11 -5.5 -20t-18.5 -15l-387 -176l391 -179q16 -8 22.5 -20t6.5 -23q0 -17 -12.5 -31t-32.5 -14q-12 0 -24 6l-463 227q-22 10 -22 36z" />
<glyph unicode="=" horiz-adv-x="857" d="M145 284q0 31 31 31h502q29 0 29 -33q0 -31 -29 -31h-502q-31 0 -31 33zM145 525q0 29 31 29h502q35 0 35 -33q0 -31 -35 -31h-502q-31 0 -31 35z" />
<glyph unicode="&#x3e;" horiz-adv-x="655" d="M91 177q0 11 6.5 22t22.5 19l392 179l-388 176q-25 12 -25 35q0 17 13 31t33 14q14 0 24 -5l454 -215q11 -5 16.5 -12.5t5.5 -21.5q0 -26 -22 -36l-463 -227q-12 -6 -23 -6q-20 0 -33 14.5t-13 32.5z" />
<glyph unicode="?" horiz-adv-x="953" d="M133 57q0 50 70 50q71 0 71 -50t-71 -50q-70 0 -70 50zM160 250v46q0 156 199 156h142q228 0 228 116v127q0 140 -228 140h-62q-33 0 -33 36q0 38 33 38h39q342 0 342 -233v-91q0 -204 -345 -204h-130q-90 0 -90 -84v-47q0 -48 -49 -48q-46 0 -46 48z" />
<glyph unicode="@" horiz-adv-x="1177" d="M133 199v525q0 185 236 185h459q216 0 216 -172v-361q0 -148 -158 -148h-310q-101 0 -152.5 33t-51.5 99v179q0 128 201 128h182q23 0 23 -23v-337h107q69 0 69 69v384q0 75 -126 75h-458q-151 0 -152 -111l1 -525q0 -125 157 -125h84q38 0 38 -30q0 -44 -38 -44h-54 q-273 0 -273 199zM454 361q0 -54 119 -54h121v292h-124q-116 0 -116 -58v-180z" />
<glyph unicode="A" horiz-adv-x="1366" d="M55 37q0 13 8 24l545 815q14 21 33.5 31.5t39.5 10.5t40.5 -10.5t34.5 -31.5l545 -813q10 -14 10 -27q0 -19 -16.5 -29.5t-35.5 -10.5q-26 0 -39 20l-163 242h-749l-163 -244q-7 -11 -17 -15t-21 -4q-19 0 -35.5 12t-16.5 30zM357 334h649l-323 489z" />
<glyph unicode="B" horiz-adv-x="1351" d="M133 28v854q0 27 25 27h715q301 0 315 -225v-48q0 -154 -162 -182q187 -31 192 -196v-47q0 -211 -313 -211h-747q-25 0 -25 28zM233 74h672q211 0 211 116v92q0 131 -256 131h-627v-339zM239 486h621q115 0 169 31.5t54 95.5v95q0 127 -208 127h-636v-349z" />
<glyph unicode="C" horiz-adv-x="1148" d="M133 218v488q0 203 353 203h548q32 0 32 -36q0 -38 -32 -38h-544q-257 0 -257 -129v-485q0 -147 280 -147h521q32 0 32 -37t-32 -37h-540q-361 0 -361 218z" />
<glyph unicode="D" horiz-adv-x="1361" d="M133 28v854q0 27 26 27h723q346 0 346 -215v-465q0 -229 -349 -229h-720q-26 0 -26 28zM236 74h640q252 0 252 155v465q0 141 -249 141h-643v-761z" />
<glyph unicode="E" horiz-adv-x="1191" d="M133 209v485q0 215 361 215h166q29 0 29 -38q0 -36 -29 -36h-113q-311 0 -311 -141v-208h853q29 0 29 -37q0 -36 -29 -36h-853v-198q0 -141 251 -141h602q31 0 31 -38q0 -36 -31 -36h-608q-348 0 -348 209z" />
<glyph unicode="F" horiz-adv-x="1128" d="M133 33v658q0 218 351 218h128q35 0 35 -34q0 -40 -35 -40h-109q-267 0 -267 -142v-207h848q34 0 34 -34q0 -39 -34 -39h-848v-380q0 -39 -50 -39q-53 0 -53 39z" />
<glyph unicode="G" horiz-adv-x="1308" d="M133 211v490q0 208 367 208h150q31 0 31 -37t-31 -37h-106q-308 0 -308 -134v-490q0 -137 264 -137h382q229 0 229 134v252q0 38 51 38t51 -38v-248q0 -212 -331 -212h-385q-364 0 -364 211z" />
<glyph unicode="H" horiz-adv-x="1390" d="M147 33v843q0 38 53 38q50 0 50 -38v-390h892v390q0 38 48 38q52 0 52 -38v-843q0 -39 -51 -39q-49 0 -49 39v380h-892v-380q0 -39 -52 -39q-51 0 -51 39z" />
<glyph unicode="I" horiz-adv-x="369" d="M133 33v844q0 38 54 38q49 0 49 -38v-844q0 -37 -52 -37q-51 0 -51 37z" />
<glyph unicode="J" horiz-adv-x="599" d="M10 36q0 38 36 38h81q237 0 237 168v634q0 38 52 38q50 0 50 -38v-624q0 -252 -339 -252h-81q-36 0 -36 36z" />
<glyph unicode="K" horiz-adv-x="1166" d="M133 33v843q0 38 51 38q47 0 47 -38v-384l745 417q12 6 24 6q20 0 34.5 -13t14.5 -29q0 -8 -4.5 -16.5t-15.5 -13.5l-708 -380l730 -390q11 -6 17 -17.5t6 -20.5q0 -16 -11 -28t-28 -12q-12 0 -25 7l-779 427v-396q0 -39 -48 -39q-50 0 -50 39z" />
<glyph unicode="L" horiz-adv-x="1132" d="M133 222v655q0 38 51 38q52 0 52 -38v-655q0 -148 309 -148h553q34 0 34 -41q0 -33 -34 -33h-546q-419 0 -419 222z" />
<glyph unicode="M" horiz-adv-x="1767" d="M133 33v821q0 60 58 60q46 0 78 -41l622 -792l610 800q25 33 71 33q62 0 62 -63v-818q0 -39 -53 -39q-46 0 -46 39v751l-566 -749q-32 -41 -80 -41q-51 0 -83 41l-574 746v-748q0 -39 -48 -39q-51 0 -51 39z" />
<glyph unicode="N" horiz-adv-x="1353" d="M133 33v814q0 31 20.5 48t46.5 17q15 0 30 -5.5t28 -16.5l863 -765v751q0 38 51 38q48 0 48 -38v-810q0 -35 -19 -53t-45 -18q-14 0 -29 5t-26 16l-869 778v-761q0 -39 -49 -39q-50 0 -50 39z" />
<glyph unicode="O" horiz-adv-x="1325" d="M133 226v454q0 229 397 229h265q397 0 397 -229v-452q0 -228 -397 -228h-265q-397 0 -397 226zM236 231q0 -157 264 -157h332q259 0 259 157v443q0 161 -250 161h-341q-264 0 -264 -161v-443z" />
<glyph unicode="P" horiz-adv-x="1274" d="M133 33v849q0 27 26 27h708q357 0 357 -191v-167q0 -201 -365 -201h-623v-317q0 -39 -52 -39q-51 0 -51 39zM236 424h641q249 0 249 134v148q0 129 -241 129h-649v-411z" />
<glyph unicode="Q" horiz-adv-x="1353" d="M133 226v461q1 222 342 222h395q350 0 350 -219v-464q0 -164 -202 -212l116 -68q9 -5 13 -13t4 -15q0 -16 -13 -29t-31 -13q-12 0 -22 7l-206 120h-403q-343 0 -343 223zM236 222q0 -148 279 -148h379q224 0 224 147v470q0 144 -286 144h-316q-280 0 -280 -144v-469z" />
<glyph unicode="R" horiz-adv-x="1267" d="M133 33v849q0 27 26 27h685q373 0 373 -224v-103q0 -205 -341 -205h-447l691 -301q12 -5 17.5 -14.5t5.5 -20.5q0 -17 -11.5 -32t-29.5 -15q-8 0 -18 5l-848 390v-356q0 -39 -50 -39q-53 0 -53 39zM236 449h653q228 0 228 121v123q0 142 -251 142h-630v-386z" />
<glyph unicode="S" horiz-adv-x="1176" d="M90 38q0 36 33 36h647q214 0 214 133v79q0 144 -252 144h-286q-350 0 -350 179v97q0 203 305 203h158q33 0 33 -38q0 -36 -33 -36h-180q-182 0 -182 -139v-73q0 -121 225 -121h292q372 0 372 -202v-102q0 -198 -334 -198h-629q-33 0 -33 38z" />
<glyph unicode="T" horiz-adv-x="1013" d="M15 875q0 34 32 34h921q30 0 30 -34q0 -40 -30 -40h-411v-802q0 -39 -50 -39q-51 0 -51 39v802h-409q-32 0 -32 40z" />
<glyph unicode="U" horiz-adv-x="1347" d="M133 241v635q0 38 50 38q52 0 52 -38v-624q0 -178 299 -178h257q323 0 323 177v625q0 38 52 38q48 0 48 -38v-635q0 -241 -446 -241h-213q-422 0 -422 241z" />
<glyph unicode="V" horiz-adv-x="1357" d="M55 870q0 18 14.5 31t33.5 13q11 0 22 -5.5t20 -18.5l537 -817l530 817q16 25 41 25q19 0 34 -13.5t15 -31.5q0 -13 -7 -24l-540 -808q-16 -22 -36 -33t-41 -11t-39.5 10.5t-32.5 31.5l-543 809q-8 11 -8 25z" />
<glyph unicode="W" horiz-adv-x="1796" d="M55 871q0 19 17.5 31t37.5 12q13 0 24 -5.5t17 -19.5l348 -795l330 768q11 26 27.5 39t41.5 13q26 0 42 -11t26 -34l336 -775l342 795q5 13 16 19t25 6q20 0 38 -12t18 -31q0 -9 -4 -16l-367 -811q-9 -24 -30.5 -36.5t-44.5 -12.5q-22 0 -41 11t-27 34l-324 762 l-335 -762q-11 -23 -30.5 -34t-41.5 -11q-21 0 -41 12t-30 36l-366 812q-4 8 -4 16z" />
<glyph unicode="X" horiz-adv-x="1201" d="M72 36q0 13 11 23l454 396l-447 390q-18 16 -18 32t13.5 27t31.5 11q9 0 18.5 -3t17.5 -11l447 -391l446 390q8 8 17.5 11t18.5 3q18 0 31.5 -11t13.5 -27t-18 -32l-446 -389l455 -396q11 -11 11 -23q0 -15 -13.5 -28t-32.5 -13q-20 0 -35 14l-448 390l-448 -390 q-15 -14 -34 -14t-32.5 13t-13.5 28z" />
<glyph unicode="Y" horiz-adv-x="1143" d="M53 870q0 17 14.5 30.5t33.5 13.5t34 -15l435 -434l433 433q15 15 36 15q20 0 35 -12.5t15 -29.5q0 -14 -11 -24l-457 -458l-1 -356q-3 -39 -49 -39q-51 0 -51 39v356l-456 457q-11 10 -11 24z" />
<glyph unicode="Z" horiz-adv-x="1124" d="M66 56q0 22 19 40l843 739h-815q-32 0 -32 40q0 34 32 34h899q21 0 33.5 -15.5t12.5 -33.5q0 -19 -13 -31l-863 -755h846q30 0 30 -37t-30 -37h-896q-31 0 -48.5 17t-17.5 39z" />
<glyph unicode="[" horiz-adv-x="412" d="M147 -61v1031q0 17 6 22t20 5h170q34 0 34 -34q0 -40 -34 -40h-93v-937h90q37 0 37 -37t-37 -37h-167q-13 0 -19.5 5t-6.5 22z" />
<glyph unicode="\" horiz-adv-x="1046" d="M60 883q0 45 50 45q22 0 37 -15l829 -855q13 -13 13 -30q0 -46 -42 -46q-15 0 -29 14l-840 854q-8 8 -13.5 15.5t-4.5 17.5z" />
<glyph unicode="]" horiz-adv-x="416" d="M34 -51q0 37 38 37h90v937h-94q-34 0 -34 40q0 34 34 34h171q13 0 19 -5t6 -22v-1031q0 -17 -6.5 -22t-18.5 -5h-167q-38 0 -38 37z" />
<glyph unicode="^" horiz-adv-x="597" d="M66 891q0 8 6 17l192 201q15 16 34 16q18 0 34 -16l191 -201q8 -11 8 -17q0 -29 -29 -29q-9 0 -19 9l-185 196l-185 -196q-11 -9 -21 -9q-26 0 -26 29z" />
<glyph unicode="_" horiz-adv-x="1390" d="M144 -201q0 46 42 46h1018q41 0 41 -49t-41 -49h-1018q-42 0 -42 52z" />
<glyph unicode="`" horiz-adv-x="291" d="M16 990q0 23 23 23q11 0 21 -10l203 -213q6 -8 6 -18q0 -25 -24 -25q-11 0 -18 9l-202 212q-9 10 -9 22z" />
<glyph unicode="a" horiz-adv-x="1203" d="M85 185v94q0 190 298 190h596q0 147 -182 147h-160q-27 0 -27 35q0 34 27 34h139q289 0 289 -197v-297q0 -191 -289 -191h-387q-304 0 -304 185zM178 183q0 -114 185 -114h437q179 0 179 162v168h-621q-91 0 -135.5 -28.5t-44.5 -88.5v-99z" />
<glyph unicode="b" horiz-adv-x="1203" d="M133 198v679q0 38 46 38q45 0 45 -38v-192h505q341 0 341 -205v-276q0 -204 -341 -204h-242q-354 0 -354 198zM224 200q0 -66 58 -98.5t179 -32.5h317q202 0 202 139v268q0 140 -227 140h-529v-416z" />
<glyph unicode="c" horiz-adv-x="1048" d="M133 194v298q0 193 305 193h486q41 0 41 -34q0 -35 -41 -35h-504q-195 0 -195 -120v-296q0 -131 221 -131h478q36 0 36 -37q0 -32 -36 -32h-453q-338 0 -338 194z" />
<glyph unicode="d" horiz-adv-x="1204" d="M133 179v303q0 203 341 203h506v192q0 38 44 38q47 0 47 -38v-686q0 -191 -351 -191h-245q-342 0 -342 179zM223 208q0 -139 216 -139h303q238 0 238 139v407h-533q-224 0 -224 -149v-258z" />
<glyph unicode="e" horiz-adv-x="1188" d="M133 204v278q0 203 344 203h298q285 0 285 -173v-174q0 -41 -38 -41h-799v-109q0 -119 224 -119h145q35 0 35 -34q0 -35 -35 -35h-111q-348 0 -348 204zM223 370h749v129q0 117 -171 117h-354q-224 0 -224 -123v-123z" />
<glyph unicode="f" horiz-adv-x="537" d="M139 32v671q0 200 288 200h80q30 0 30 -33q0 -34 -29 -34h-108q-170 0 -170 -133v-18h279q28 0 28 -34q0 -35 -28 -35h-279v-584q0 -39 -45 -39q-46 0 -46 39z" />
<glyph unicode="g" horiz-adv-x="1192" d="M133 198v287q0 200 330 200h235q361 0 361 -202v-493q0 -197 -339 -197h-107q-39 0 -39 34q0 35 39 35h125q232 0 232 109v29h-473q-364 0 -364 198zM224 200q0 -131 247 -131h496v407q0 69 -57.5 105t-174.5 36l-295 -1q-216 -2 -216 -128v-288z" />
<glyph unicode="h" horiz-adv-x="1192" d="M133 32v845q0 38 45 38q46 0 46 -38v-192h461q374 0 374 -210v-443q0 -39 -46 -39q-45 0 -45 39v441q0 143 -245 143h-499v-584q0 -39 -46 -39q-45 0 -45 39z" />
<glyph unicode="i" horiz-adv-x="318" d="M90 810q0 48 67 48q71 0 71 -48q0 -50 -71 -50q-67 0 -67 50zM117 32v624q0 36 42 36q48 0 48 -36v-624q-2 -39 -46 -39t-44 39z" />
<glyph unicode="j" horiz-adv-x="368" d="M-159 -125q0 36 35 36h114q174 0 174 112v633q0 36 45 36q47 0 47 -36v-621q0 -193 -276 -193h-104q-35 0 -35 33zM140 813q0 48 69 48t69 -48q0 -50 -69 -50t-69 50z" />
<glyph unicode="k" horiz-adv-x="961" d="M133 32v845q0 38 46 38q43 0 43 -38v-484l614 296q7 3 16 3q17 0 29 -11.5t12 -25.5q0 -18 -20 -28l-570 -271l572 -292q9 -5 12.5 -13t4.5 -16q0 -16 -12 -29.5t-30 -13.5q-11 0 -21 6l-607 315v-281q0 -39 -43 -39q-46 0 -46 39z" />
<glyph unicode="l" horiz-adv-x="357" d="M133 32v845q0 38 45 38q46 0 46 -38v-845q0 -39 -44 -39q-47 0 -47 39z" />
<glyph unicode="m" horiz-adv-x="1560" d="M133 32v443q0 210 328 210q290 0 324 -124q42 124 315 124q327 0 327 -210v-443q0 -39 -48 -39q-45 0 -45 39v461q0 123 -234 123q-273 0 -273 -144v-440q0 -39 -45 -39q-47 0 -47 39v441q0 143 -274 143q-237 0 -237 -124v-460q0 -39 -47 -39q-44 0 -44 39z" />
<glyph unicode="n" d="M133 32v474q0 179 330 179h255q330 0 330 -177v-476q0 -39 -46 -39q-47 0 -47 39v477q0 107 -199 107h-329q-203 0 -203 -108v-476q0 -39 -44 -39q-47 0 -47 39z" />
<glyph unicode="o" d="M133 200v279q0 206 333 206h262q320 0 320 -205v-280q0 -200 -320 -200h-262q-333 0 -333 200zM224 200q0 -131 223 -131h302q204 0 204 131v292q0 124 -206 124h-301q-222 0 -222 -137v-279z" />
<glyph unicode="p" horiz-adv-x="1192" d="M133 -184v680q0 189 328 189h253q345 0 345 -186v-301q0 -198 -307 -198h-528v-184q0 -39 -46 -39q-45 0 -45 39zM224 69h550q193 0 193 128v299q0 120 -230 120h-291q-222 0 -222 -123v-424z" />
<glyph unicode="q" horiz-adv-x="1192" d="M133 198v301q0 186 346 186h251q329 0 329 -189v-680q0 -39 -45 -39q-46 0 -46 39v184h-528q-307 0 -307 198zM225 197q0 -128 193 -128h550v424q0 123 -221 123h-292q-230 0 -230 -120v-299z" />
<glyph unicode="r" horiz-adv-x="599" d="M133 32v454q0 199 315 199h60q31 0 31 -35q0 -34 -23 -34h-82q-208 0 -208 -130v-454q0 -39 -46 -39q-47 0 -47 39z" />
<glyph unicode="s" horiz-adv-x="1012" d="M90 33q0 36 37 36h580q139 0 139 103v44q0 99 -154 99h-307q-286 0 -286 164v49q0 157 272 157h153q39 0 39 -35q0 -34 -39 -34h-185q-150 0 -150 -89v-46q0 -97 173 -97h313q267 0 267 -168v-44q0 -172 -258 -172h-557q-37 0 -37 33z" />
<glyph unicode="t" horiz-adv-x="595" d="M55 651q0 34 37 34h85v192q0 38 46 38q44 0 44 -38v-192h284q34 0 34 -35q0 -34 -34 -34h-284v-584q0 -39 -45 -39t-45 39v584h-85q-37 0 -37 35z" />
<glyph unicode="u" horiz-adv-x="1207" d="M141 190v470q0 38 45 38q46 0 46 -38v-470q0 -121 239 -121h271q234 0 234 119v472q0 36 48 36q45 0 45 -36v-470q0 -190 -349 -190h-227q-352 0 -352 190z" />
<glyph unicode="v" horiz-adv-x="1172" d="M51 662q0 17 14.5 29t32.5 12q17 0 29 -16l457 -586l455 588q14 17 33 17q17 0 31.5 -12.5t14.5 -29.5q0 -12 -9 -24l-492 -625q-13 -22 -35 -22q-17 0 -32 20l-491 627q-8 9 -8 22z" />
<glyph unicode="w" horiz-adv-x="1481" d="M55 653q0 20 14.5 31.5t31.5 11.5q11 0 21.5 -6t16.5 -19l274 -573l267 552q10 18 26.5 27t34.5 9t34.5 -8.5t25.5 -26.5l268 -553l272 573q5 10 13.5 14.5t19.5 4.5q19 0 35.5 -11.5t16.5 -28.5q0 -8 -4 -15l-286 -606q-17 -36 -67 -36q-47 0 -65 33l-262 553l-267 -554 q-16 -34 -66 -34q-29 0 -45 9t-24 26l-279 603q-6 12 -6 24z" />
<glyph unicode="x" horiz-adv-x="1080" d="M90 649q0 17 13 29.5t32 12.5q17 0 31 -11l374 -287l374 287q14 10 31 10q18 0 31 -11t13 -27q0 -19 -19 -34l-363 -276l363 -278q14 -11 14 -28t-12.5 -30.5t-28.5 -13.5q-13 0 -21 8l-382 290l-382 -290q-11 -8 -21 -8q-16 0 -28.5 13.5t-12.5 30.5t14 28l362 278 l-362 276q-20 15 -20 31z" />
<glyph unicode="y" horiz-adv-x="1187" d="M133 190v470q0 36 46 36q45 0 45 -36v-470q0 -121 209 -121h530v591q0 36 45 36q46 0 46 -36v-685q0 -182 -280 -182h-165q-32 0 -32 35q0 34 32 34h176q178 0 178 113v25h-505q-325 0 -325 190z" />
<glyph unicode="z" horiz-adv-x="1160" d="M109 50q0 23 31 44l759 522h-723q-34 0 -34 34q0 35 34 35h787q27 0 45 -12.5t18 -37.5q0 -24 -30 -43l-759 -523h790q33 0 33 -34q0 -35 -33 -35h-854q-29 0 -46.5 12t-17.5 38z" />
<glyph unicode="{" horiz-adv-x="373" d="M42 459q0 24 12 30t26.5 9.5t26.5 10.5t12 33v375q0 80 152 80h17q37 0 37 -39q0 -35 -37 -35h-47q-45 0 -45 -40v-341q0 -67 -75 -85q75 -26 75 -90v-356q0 -25 45 -25h39q33 0 33 -37t-33 -37h-17q-144 0 -144 79v379q0 29 -12 37.5t-26.5 12t-26.5 9.5t-12 30z" />
<glyph unicode="|" horiz-adv-x="407" d="M147 -187v1154q0 37 53 37q50 0 50 -37v-1154q0 -50 -55 -50q-48 0 -48 50z" />
<glyph unicode="}" horiz-adv-x="373" d="M46 958q0 39 37 39h17q152 0 152 -80v-375q0 -26 12 -33t26.5 -10.5t26.5 -9.5t12 -30t-12 -30t-26.5 -9.5t-26.5 -12t-12 -37.5v-379q0 -79 -144 -79h-17q-33 0 -33 37t33 37h39q45 0 45 25v356q0 64 75 90q-75 18 -75 85v341q0 40 -45 40h-47q-37 0 -37 35z" />
<glyph unicode="~" horiz-adv-x="1029" d="M61 608q0 166 262 166q215 0 234 -157q24 -105 100 -105h86q130 0 130 102q0 40 44 40q48 0 48 -40q0 -173 -262 -173q-217 0 -236 160q-24 103 -100 103h-84q-130 0 -130 -103q0 -41 -43 -41q-49 0 -49 48z" />
<glyph unicode="&#xa1;" horiz-adv-x="295" d="M72 574q0 51 71 51t71 -51q0 -49 -71 -49t-71 49zM93 -261v665q0 42 50 42q51 0 51 -42v-665q-1 -43 -54 -43q-47 0 -47 43z" />
<glyph unicode="&#xa2;" horiz-adv-x="1115" d="M87 326v306q0 198 310 198h173v52q0 38 45 38q46 0 46 -38v-52h375q41 0 41 -36t-41 -36h-375v-559h375q37 0 37 -38q0 -31 -37 -31h-375v-102q0 -39 -44 -39q-47 0 -47 39v102h-141q-342 0 -342 196zM178 335q0 -136 227 -136h165v559h-191q-201 0 -201 -122v-301z" />
<glyph unicode="&#xa3;" horiz-adv-x="1121" d="M133 45v646q0 218 351 218h128q35 0 35 -34q0 -40 -35 -40h-109q-267 0 -267 -142v-207h546q34 0 34 -34q0 -39 -34 -39h-546v-340h848q34 0 34 -35q0 -39 -34 -39l-898 1q-53 0 -53 45z" />
<glyph unicode="&#xa4;" horiz-adv-x="1213" d="M103 328q0 31 31 31h58v174h-58q-31 0 -31 36q0 29 31 29h58v108q0 203 353 203h565q31 0 31 -36q0 -38 -31 -38h-561q-257 0 -257 -129v-108h626q34 0 34 -33q0 -32 -34 -32h-626v-174h491q28 0 28 -33q0 -31 -28 -31h-491v-74q0 -147 280 -147h581q32 0 32 -37t-32 -37 h-600q-361 0 -361 218v77h-58q-31 0 -31 33z" />
<glyph unicode="&#xa5;" horiz-adv-x="1146" d="M55 870q0 17 14.5 30.5t33.5 13.5t34 -15l435 -434l433 433q15 15 36 15q20 0 35 -12.5t15 -29.5q0 -14 -11 -24l-457 -458l200 -1q35 0 35 -33q0 -31 -35 -31h-201v-115h201q29 0 29 -33q0 -31 -29 -31h-201v-112q-3 -39 -49 -39q-51 0 -51 39v112h-201q-31 0 -31 33 q0 31 31 31h201v115h-201q-31 0 -31 35q0 29 31 29h201l-456 458q-11 10 -11 24z" />
<glyph unicode="&#xa6;" horiz-adv-x="402" d="M145 -187v401q0 37 53 37q50 0 50 -37v-401q0 -50 -55 -50q-48 0 -48 50zM145 544v423q0 37 53 37q50 0 50 -37v-423q0 -50 -55 -50q-48 0 -48 50z" />
<glyph unicode="&#xa7;" horiz-adv-x="885" d="M89 33q0 36 37 36h459q139 0 139 110q0 99 -150 99h-190q-286 0 -286 164v54q0 85 101 124q-101 41 -101 130q0 158 272 158h32q39 0 39 -36q0 -34 -39 -34h-64q-150 0 -150 -88q0 -97 168 -97h197q267 0 267 -168v-48q0 -87 -99 -126q99 -42 99 -132q0 -179 -258 -179 h-436q-37 0 -37 33zM188 444q0 -96 173 -96h224q139 0 139 89v48q0 99 -154 99h-232q-150 0 -150 -89v-51z" />
<glyph unicode="&#xa8;" horiz-adv-x="662" d="M137 917q0 43 60 43q59 0 59 -43q0 -45 -59 -45q-60 0 -60 45zM403 917q0 43 61 43q59 0 59 -43q0 -45 -59 -45q-61 0 -61 45z" />
<glyph unicode="&#xa9;" horiz-adv-x="1061" d="M102 574q0 91 33.5 172.5t91 143t135 98t166.5 36.5t167.5 -35.5t137 -97t92.5 -143.5t34 -174t-33.5 -174t-91.5 -143.5t-137 -97.5t-169 -36q-89 0 -166.5 36t-135.5 97.5t-91 143.5t-33 174zM154 574q0 -81 29.5 -153t80.5 -126t119 -85.5t145 -31.5q78 0 146.5 31.5 t119.5 85.5t80.5 126t29.5 153q0 80 -29.5 151.5t-80.5 125.5t-119.5 85.5t-146.5 31.5q-77 0 -145 -31.5t-119 -85.5t-80.5 -125.5t-29.5 -151.5zM336 482v170q0 126 131 126h181q23 0 23 -26q0 -28 -23 -28h-176q-88 0 -88 -75v-165q0 -75 89 -75h174q22 0 22 -27t-22 -27 h-182q-129 0 -129 127z" />
<glyph unicode="&#xaa;" horiz-adv-x="858" d="M71 578v61q0 131 201 131h372q-6 75 -106 75h-103q-27 0 -27 33q0 31 27 31h90q195 0 195 -136v-191q0 -132 -195 -132h-249q-205 0 -205 128zM151 577q0 -63 108 -63h281q105 0 105 93v99h-389q-105 0 -105 -65v-64z" />
<glyph unicode="&#xab;" horiz-adv-x="825" d="M53 398q0 12 4.5 19.5t14.5 15.5l279 215q13 10 26 10q17 0 29 -13.5t12 -30.5q0 -9 -4 -18t-15 -17l-242 -182l242 -178q21 -15 21 -37q0 -18 -13 -31.5t-31 -13.5q-6 0 -12.5 2t-12.5 7l-279 217q-19 15 -19 35zM361 398q0 12 4.5 19.5t14.5 15.5l279 215q13 10 26 10 q17 0 29 -13.5t12 -30.5q0 -9 -4 -18t-15 -17l-242 -182l242 -178q21 -15 21 -37q0 -18 -13 -31.5t-31 -13.5q-6 0 -12.5 2t-12.5 7l-279 217q-19 15 -19 35z" />
<glyph unicode="&#xac;" horiz-adv-x="675" d="M13 374q0 32 34 32h452q28 0 28 -30v-126q0 -39 -44 -39q-47 0 -47 39v93h-389q-34 0 -34 31z" />
<glyph unicode="&#xad;" horiz-adv-x="852" d="M143 374q0 32 34 32h502q28 0 28 -30q0 -33 -28 -33h-502q-34 0 -34 31z" />
<glyph unicode="&#xae;" horiz-adv-x="1061" d="M102 574q0 91 33.5 172.5t91 143t135 98t166.5 36.5t167.5 -35.5t137 -97t92.5 -143.5t34 -174t-33.5 -174t-91.5 -143.5t-137 -97.5t-169 -36q-89 0 -166.5 36t-135.5 97.5t-91 143.5t-33 174zM154 574q0 -81 29.5 -153t80.5 -126t119 -85.5t145 -31.5q78 0 146.5 31.5 t119.5 85.5t80.5 126t29.5 153t-29.5 152.5t-80.5 125t-119.5 85t-146.5 31.5q-77 0 -145 -31.5t-119 -85t-80.5 -125t-29.5 -152.5zM314 373v432q0 13 11 13h244q157 0 157 -108v-62q0 -48 -35.5 -74t-107.5 -26h-107l243 -163q11 -6 11 -17q0 -10 -8 -19t-20 -9 q-7 0 -14 4l-319 217v-188q0 -29 -28 -29q-27 0 -27 29zM369 593h221q85 0 85 55v63q0 58 -96 58h-210v-176z" />
<glyph unicode="&#xaf;" horiz-adv-x="872" d="M143 912q0 38 41 38h501q43 0 43 -36t-43 -36h-501q-41 0 -41 34z" />
<glyph unicode="&#xb0;" horiz-adv-x="616" d="M102 839q0 46 16.5 85.5t44 68.5t65 46t79.5 17q43 0 80.5 -17t65 -46t43.5 -68.5t16 -85.5q0 -43 -15.5 -82t-43 -68.5t-65 -47t-81.5 -17.5q-43 0 -80.5 17t-65 46t-43.5 68.5t-16 83.5zM143 838q0 -35 13 -66.5t35.5 -55.5t52 -38t63.5 -14t64.5 13.5t53 37.5 t35.5 55.5t13 67.5t-12.5 68t-35 56t-53 37.5t-65.5 13.5t-65 -13.5t-52 -37t-34.5 -55.5t-12.5 -69z" />
<glyph unicode="&#xb1;" horiz-adv-x="580" d="M45 155q0 32 34 32h427q28 0 28 -30q0 -33 -28 -33h-427q-34 0 -34 31zM48 453q0 35 30 35h163v114q0 36 47 36q49 0 49 -36v-114h169q28 0 28 -35q0 -36 -28 -36h-169v-117q0 -38 -45 -38q-49 0 -49 38v117h-165q-30 0 -30 36z" />
<glyph unicode="&#xb2;" horiz-adv-x="884" d="M65 281v178q0 156 274 156h213q125 0 125 73v69q0 73 -117 73h-166q-41 0 -41 40q0 39 41 39h153q230 0 230 -165v-43q0 -166 -237 -166h-220q-157 0 -157 -75v-133h578q36 0 36 -40q0 -39 -36 -39h-643q-33 0 -33 33z" />
<glyph unicode="&#xb3;" horiz-adv-x="917" d="M62 287q0 40 42 40h431q150 0 150 85v65q0 19 -13.5 32t-34.5 20.5t-47 11t-51 3.5h-435q-42 0 -42 40q0 42 42 42h435q31 0 57.5 5t46 14t31 22t11.5 30v64q0 69 -148 69h-126q-43 0 -43 40q0 39 43 39h100q273 0 273 -153v-39q0 -89 -83 -127q83 -35 83 -135v-38 q0 -169 -266 -169h-414q-42 0 -42 39z" />
<glyph unicode="&#xb4;" horiz-adv-x="421" d="M87 772q0 10 8 18l201 213q10 10 22 10q24 0 24 -23q0 -11 -8 -22l-204 -212q-8 -9 -19 -9q-24 0 -24 25z" />
<glyph unicode="&#xb5;" horiz-adv-x="1129" d="M147 -164v824q0 36 46 36q45 0 45 -36v-591h529q209 0 209 121v470q0 36 46 36t46 -36v-470q0 -190 -325 -190h-505v-164q0 -43 -46 -43q-45 0 -45 43z" />
<glyph unicode="&#xb6;" horiz-adv-x="1041" d="M52 718q0 191 257 191h558q26 0 26 -27v-849q0 -39 -51 -39q-52 0 -52 39v483h-244v-483q0 -37 -52 -37q-51 0 -51 37v483h-126q-265 0 -265 202zM150 718q0 -128 149 -128h491v245h-499q-141 0 -141 -117z" />
<glyph unicode="&#xb7;" horiz-adv-x="379" d="M115 372q0 49 71 49q72 0 72 -49q0 -52 -72 -52q-71 0 -71 52z" />
<glyph unicode="&#xb8;" horiz-adv-x="428" d="M27 -155q0 36 34 36h85q73 0 73 82v43q0 33 46 33t46 -33v-45q0 -152 -172 -152h-78q-34 0 -34 36z" />
<glyph unicode="&#xb9;" horiz-adv-x="402" d="M146 285v587q0 40 50 40q49 0 49 -40v-587q0 -41 -50 -41q-49 0 -49 41z" />
<glyph unicode="&#xba;" horiz-adv-x="495" d="M104 784q0 33 11 60.5t30.5 47.5t45.5 31.5t56 11.5q31 0 57 -12t45 -32.5t30 -48t11 -58.5q0 -30 -11 -57.5t-30.5 -48t-45.5 -32.5t-56 -12q-29 0 -55 11.5t-45.5 32t-31 47.5t-11.5 59zM150 784q0 -20 7.5 -38.5t20 -32.5t30.5 -23t39 -9q20 0 38 8t31.5 22t21 33 t7.5 40t-7.5 40t-20.5 33.5t-31 22.5t-39 8t-38.5 -8t-30.5 -22.5t-20.5 -33.5t-7.5 -40z" />
<glyph unicode="&#xbb;" horiz-adv-x="824" d="M96 182q0 21 20 37l242 178l-242 182q-19 14 -19 34q0 17 12.5 30.5t29.5 13.5q12 0 26 -9l278 -215q9 -8 14.5 -16t5.5 -19q0 -20 -20 -35l-278 -217q-13 -10 -26 -10q-18 0 -30.5 14t-12.5 32zM404 182q0 22 21 37l241 178l-241 182q-11 8 -15.5 17t-4.5 18 q0 17 12.5 30.5t29.5 13.5q13 0 26 -10l278 -215q20 -14 20 -35q0 -20 -20 -35l-278 -217q-12 -9 -26 -9q-17 0 -30 13.5t-13 31.5z" />
<glyph unicode="&#xbc;" horiz-adv-x="2046" d="M134 285v587q0 40 50 40q49 0 49 -40v-587q0 -41 -50 -41q-49 0 -49 41zM281 25q0 18 13 31l829 855q15 15 37 15q49 0 49 -43q0 -18 -17 -35l-841 -855q-13 -13 -28 -13q-42 0 -42 45zM1190 219v396q0 40 48 40t48 -40v-355h564v355q0 40 49 40q50 0 50 -40v-587 q0 -41 -50 -41q-49 0 -49 41v137h-609q-26 0 -38.5 12.5t-12.5 41.5z" />
<glyph unicode="&#xbd;" horiz-adv-x="1806" d="M134 285v587q0 40 50 40q49 0 49 -40v-587q0 -41 -50 -41q-49 0 -49 41zM260 25q0 18 13 31l829 855q15 15 37 15q49 0 49 -43q0 -18 -17 -35l-841 -855q-13 -13 -28 -13q-42 0 -42 45zM1023 33v178q0 156 274 156h213q125 0 125 73v69q0 73 -117 73h-166q-41 0 -41 40 q0 39 41 39h153q230 0 230 -165v-43q0 -166 -237 -166h-220q-157 0 -157 -75v-133h578q36 0 36 -40q0 -39 -36 -39h-643q-33 0 -33 33z" />
<glyph unicode="&#xbe;" horiz-adv-x="2503" d="M56 287q0 40 42 40h431q150 0 150 85v65q0 19 -13.5 32t-34.5 20.5t-47 11t-51 3.5h-435q-42 0 -42 40q0 42 42 42h435q31 0 57.5 5t46 14t31 22t11.5 30v64q0 69 -148 69h-126q-43 0 -43 40q0 39 43 39h100q273 0 273 -153v-39q0 -89 -83 -127q83 -35 83 -135v-38 q0 -169 -266 -169h-414q-42 0 -42 39zM731 25q0 18 13 31l829 855q15 15 37 15q49 0 49 -43q0 -18 -17 -35l-841 -855q-13 -13 -28 -13q-42 0 -42 45zM1637 221v396q0 40 48 40t48 -40v-355h564v355q0 40 49 40q50 0 50 -40v-587q0 -41 -50 -41q-49 0 -49 41v137h-609 q-26 0 -38.5 12.5t-12.5 41.5z" />
<glyph unicode="&#xbf;" horiz-adv-x="773" d="M25 56q0 189 346 189h180q73 0 73 89v39q0 51 50 51q44 0 44 -51v-60q0 -138 -214 -138h-160q-115 0 -171.5 -32t-56.5 -92v-109q0 -78 57.5 -116.5t170.5 -38.5h63q32 0 32 -35t-51 -35h-21q-342 1 -342 221v118zM605 569q0 51 69 51q73 0 73 -51q0 -50 -71 -50t-71 50z " />
<glyph unicode="&#xc0;" horiz-adv-x="1366" d="M55 37q0 13 8 24l545 815q14 21 33.5 31.5t39.5 10.5t40.5 -10.5t34.5 -31.5l545 -813q10 -14 10 -27q0 -19 -16.5 -29.5t-35.5 -10.5q-26 0 -39 20l-163 242h-749l-163 -244q-7 -11 -17 -15t-21 -4q-19 0 -35.5 12t-16.5 30zM357 334h649l-323 489zM556 1214q0 23 23 23 q11 0 21 -10l203 -213q6 -8 6 -18q0 -25 -24 -25q-11 0 -18 9l-202 212q-9 10 -9 22z" />
<glyph unicode="&#xc1;" horiz-adv-x="1366" d="M55 37q0 13 8 24l545 815q14 21 33.5 31.5t39.5 10.5t40.5 -10.5t34.5 -31.5l545 -813q10 -14 10 -27q0 -19 -16.5 -29.5t-35.5 -10.5q-26 0 -39 20l-163 242h-749l-163 -244q-7 -11 -17 -15t-21 -4q-19 0 -35.5 12t-16.5 30zM357 334h649l-323 489zM555 996q0 10 8 18 l201 213q10 10 22 10q24 0 24 -23q0 -11 -8 -22l-204 -212q-8 -9 -19 -9q-24 0 -24 25z" />
<glyph unicode="&#xc2;" horiz-adv-x="1366" d="M55 37q0 13 8 24l545 815q14 21 33.5 31.5t39.5 10.5t40.5 -10.5t34.5 -31.5l545 -813q10 -14 10 -27q0 -19 -16.5 -29.5t-35.5 -10.5q-26 0 -39 20l-163 242h-749l-163 -244q-7 -11 -17 -15t-21 -4q-19 0 -35.5 12t-16.5 30zM357 334h649l-323 489zM451 992q0 8 6 14 l192 203q15 16 34 16q20 0 35 -16l191 -203q6 -8 6 -15q0 -11 -9.5 -20t-20.5 -9q-9 0 -15 8l-186 196l-186 -196q-8 -8 -16 -8q-11 0 -21 9.5t-10 20.5z" />
<glyph unicode="&#xc3;" horiz-adv-x="1366" d="M55 37q0 13 8 24l545 815q14 21 33.5 31.5t39.5 10.5t40.5 -10.5t34.5 -31.5l545 -813q10 -14 10 -27q0 -19 -16.5 -29.5t-35.5 -10.5q-26 0 -39 20l-163 242h-749l-163 -244q-7 -11 -17 -15t-21 -4q-19 0 -35.5 12t-16.5 30zM357 334h649l-323 489zM390 1136q0 35 38 35 h507q40 0 40 -33t-40 -33h-507q-38 0 -38 31z" />
<glyph unicode="&#xc4;" horiz-adv-x="1366" d="M55 37q0 13 8 24l545 815q14 21 33.5 31.5t39.5 10.5t40.5 -10.5t34.5 -31.5l545 -813q10 -14 10 -27q0 -19 -16.5 -29.5t-35.5 -10.5q-26 0 -39 20l-163 242h-749l-163 -244q-7 -11 -17 -15t-21 -4q-19 0 -35.5 12t-16.5 30zM357 334h649l-323 489zM490 1141q0 43 60 43 q59 0 59 -43q0 -45 -59 -45q-60 0 -60 45zM756 1141q0 43 61 43q59 0 59 -43q0 -45 -59 -45q-61 0 -61 45z" />
<glyph unicode="&#xc5;" horiz-adv-x="1366" d="M55 37q0 13 8 24l545 815q14 21 33.5 31.5t39.5 10.5t40.5 -10.5t34.5 -31.5l545 -813q10 -14 10 -27q0 -19 -16.5 -29.5t-35.5 -10.5q-26 0 -39 20l-163 242h-749l-163 -244q-7 -11 -17 -15t-21 -4q-19 0 -35.5 12t-16.5 30zM357 334h649l-323 489zM544 1133 q0 29 11.5 54.5t30.5 44.5t44 30t53 11t53.5 -11t44.5 -30t30 -44.5t11 -54.5q0 -30 -11.5 -55t-31 -44t-44.5 -29.5t-52 -10.5q-29 0 -54.5 11t-44.5 30t-29.5 44t-10.5 54zM592 1133q0 -17 7 -32t19.5 -26.5t29 -18.5t35.5 -7q39 0 65 25t26 59q0 36 -26 60.5t-65 24.5 q-38 0 -64.5 -24.5t-26.5 -60.5z" />
<glyph unicode="&#xc6;" horiz-adv-x="1416" d="M25 37q0 13 8 24l545 815q11 17 28.5 25t46.5 8h373q29 0 29 -38q0 -36 -29 -36h-190v-349h494q29 0 29 -37q0 -36 -29 -36h-494v-339h494q31 0 31 -38q0 -36 -31 -36h-518q-7 -4 -28 -4q-51 0 -51 37v380h-353l-265 -399q-7 -11 -17 -15t-21 -4q-19 0 -35.5 12t-16.5 30 zM429 486h304v349h-72z" />
<glyph unicode="&#xc7;" horiz-adv-x="1161" d="M133 218v488q0 203 353 203h548q32 0 32 -36q0 -38 -32 -38h-544q-257 0 -257 -129v-485q0 -147 280 -147h521q32 0 32 -37t-32 -37h-540q-361 0 -361 218zM438 -155q0 36 34 36h85q73 0 73 82v43q0 33 46 33t46 -33v-45q0 -152 -172 -152h-78q-34 0 -34 36z" />
<glyph unicode="&#xc8;" horiz-adv-x="1191" d="M133 209v485q0 215 361 215h166q29 0 29 -38q0 -36 -29 -36h-113q-311 0 -311 -141v-208h853q29 0 29 -37q0 -36 -29 -36h-853v-198q0 -141 251 -141h602q31 0 31 -38q0 -36 -31 -36h-608q-348 0 -348 209zM469 1214q0 23 23 23q11 0 21 -10l203 -213q6 -8 6 -18 q0 -25 -24 -25q-11 0 -18 9l-202 212q-9 10 -9 22z" />
<glyph unicode="&#xc9;" horiz-adv-x="1191" d="M133 209v485q0 215 361 215h166q29 0 29 -38q0 -36 -29 -36h-113q-311 0 -311 -141v-208h853q29 0 29 -37q0 -36 -29 -36h-853v-198q0 -141 251 -141h602q31 0 31 -38q0 -36 -31 -36h-608q-348 0 -348 209zM468 996q0 10 8 18l201 213q10 10 22 10q24 0 24 -23 q0 -11 -8 -22l-204 -212q-8 -9 -19 -9q-24 0 -24 25z" />
<glyph unicode="&#xca;" horiz-adv-x="1191" d="M133 209v485q0 215 361 215h166q29 0 29 -38q0 -36 -29 -36h-113q-311 0 -311 -141v-208h853q29 0 29 -37q0 -36 -29 -36h-853v-198q0 -141 251 -141h602q31 0 31 -38q0 -36 -31 -36h-608q-348 0 -348 209zM363 992q0 8 6 14l192 203q15 16 34 16q20 0 35 -16l191 -203 q6 -8 6 -15q0 -11 -9.5 -20t-20.5 -9q-9 0 -15 8l-186 196l-186 -196q-8 -8 -16 -8q-11 0 -21 9.5t-10 20.5z" />
<glyph unicode="&#xcb;" horiz-adv-x="1191" d="M133 209v485q0 215 361 215h166q29 0 29 -38q0 -36 -29 -36h-113q-311 0 -311 -141v-208h853q29 0 29 -37q0 -36 -29 -36h-853v-198q0 -141 251 -141h602q31 0 31 -38q0 -36 -31 -36h-608q-348 0 -348 209zM402 1141q0 43 60 43q59 0 59 -43q0 -45 -59 -45q-60 0 -60 45z M668 1141q0 43 61 43q59 0 59 -43q0 -45 -59 -45q-61 0 -61 45z" />
<glyph unicode="&#xcc;" horiz-adv-x="369" d="M28 1214q0 23 23 23q11 0 21 -10l203 -213q6 -8 6 -18q0 -25 -24 -25q-11 0 -18 9l-202 212q-9 10 -9 22zM133 33v844q0 38 54 38q49 0 49 -38v-844q0 -37 -52 -37q-51 0 -51 37z" />
<glyph unicode="&#xcd;" horiz-adv-x="369" d="M81 996q0 10 8 18l201 213q10 10 22 10q24 0 24 -23q0 -11 -8 -22l-204 -212q-8 -9 -19 -9q-24 0 -24 25zM133 33v844q0 38 54 38q49 0 49 -38v-844q0 -37 -52 -37q-51 0 -51 37z" />
<glyph unicode="&#xce;" horiz-adv-x="369" d="M-45 992q0 8 6 14l192 203q15 16 34 16q20 0 35 -16l191 -203q6 -8 6 -15q0 -11 -9.5 -20t-20.5 -9q-9 0 -15 8l-186 196l-186 -196q-8 -8 -16 -8q-11 0 -21 9.5t-10 20.5zM133 33v844q0 38 54 38q49 0 49 -38v-844q0 -37 -52 -37q-51 0 -51 37z" />
<glyph unicode="&#xcf;" horiz-adv-x="369" d="M-6 1141q0 43 60 43q59 0 59 -43q0 -45 -59 -45q-60 0 -60 45zM133 33v844q0 38 54 38q49 0 49 -38v-844q0 -37 -52 -37q-51 0 -51 37zM260 1141q0 43 61 43q59 0 59 -43q0 -45 -59 -45q-61 0 -61 45z" />
<glyph unicode="&#xd0;" horiz-adv-x="1361" d="M58 454q0 32 34 32h502q28 0 28 -30q0 -33 -28 -33h-502q-34 0 -34 31zM133 28v854q0 27 26 27h723q346 0 346 -215v-465q0 -229 -349 -229h-720q-26 0 -26 28zM236 74h640q252 0 252 155v465q0 141 -249 141h-643v-761z" />
<glyph unicode="&#xd1;" horiz-adv-x="1353" d="M133 33v814q0 31 20.5 48t46.5 17q15 0 30 -5.5t28 -16.5l863 -765v751q0 38 51 38q48 0 48 -38v-810q0 -35 -19 -53t-45 -18q-14 0 -29 5t-26 16l-869 778v-761q0 -39 -49 -39q-50 0 -50 39zM384 1136q0 35 38 35h507q40 0 40 -33t-40 -33h-507q-38 0 -38 31z" />
<glyph unicode="&#xd2;" horiz-adv-x="1325" d="M133 226v454q0 229 397 229h265q397 0 397 -229v-452q0 -228 -397 -228h-265q-397 0 -397 226zM236 231q0 -157 264 -157h332q259 0 259 157v443q0 161 -250 161h-341q-264 0 -264 -161v-443zM536 1214q0 23 23 23q11 0 21 -10l203 -213q6 -8 6 -18q0 -25 -24 -25 q-11 0 -18 9l-202 212q-9 10 -9 22z" />
<glyph unicode="&#xd3;" horiz-adv-x="1325" d="M133 226v454q0 229 397 229h265q397 0 397 -229v-452q0 -228 -397 -228h-265q-397 0 -397 226zM236 231q0 -157 264 -157h332q259 0 259 157v443q0 161 -250 161h-341q-264 0 -264 -161v-443zM535 996q0 10 8 18l201 213q10 10 22 10q24 0 24 -23q0 -11 -8 -22l-204 -212 q-8 -9 -19 -9q-24 0 -24 25z" />
<glyph unicode="&#xd4;" horiz-adv-x="1325" d="M133 226v454q0 229 397 229h265q397 0 397 -229v-452q0 -228 -397 -228h-265q-397 0 -397 226zM236 231q0 -157 264 -157h332q259 0 259 157v443q0 161 -250 161h-341q-264 0 -264 -161v-443zM430 992q0 8 6 14l192 203q15 16 34 16q20 0 35 -16l191 -203q6 -8 6 -15 q0 -11 -9.5 -20t-20.5 -9q-9 0 -15 8l-186 196l-186 -196q-8 -8 -16 -8q-11 0 -21 9.5t-10 20.5z" />
<glyph unicode="&#xd5;" horiz-adv-x="1325" d="M133 226v454q0 229 397 229h265q397 0 397 -229v-452q0 -228 -397 -228h-265q-397 0 -397 226zM236 231q0 -157 264 -157h332q259 0 259 157v443q0 161 -250 161h-341q-264 0 -264 -161v-443zM370 1136q0 35 38 35h507q40 0 40 -33t-40 -33h-507q-38 0 -38 31z" />
<glyph unicode="&#xd6;" horiz-adv-x="1325" d="M133 226v454q0 229 397 229h265q397 0 397 -229v-452q0 -228 -397 -228h-265q-397 0 -397 226zM236 231q0 -157 264 -157h332q259 0 259 157v443q0 161 -250 161h-341q-264 0 -264 -161v-443zM469 1141q0 43 60 43q59 0 59 -43q0 -45 -59 -45q-60 0 -60 45zM735 1141 q0 43 61 43q59 0 59 -43q0 -45 -59 -45q-61 0 -61 45z" />
<glyph unicode="&#xd7;" horiz-adv-x="546" d="M83 221q0 14 11 25l126 126l-126 127q-11 11 -11 25t11 25t25 11t25 -11l126 -127l129 129q11 11 25 11t25 -11t11 -25t-11 -25l-129 -129l129 -128q11 -11 11 -25t-11 -25t-25 -11t-25 11l-129 128l-126 -126q-11 -11 -25 -11t-25 11t-11 25z" />
<glyph unicode="&#xd8;" horiz-adv-x="1325" d="M133 226v454q0 229 397 229h265q397 0 397 -229v-452q0 -228 -397 -228h-265q-397 0 -397 226zM236 231q0 -17 8 -54l747 636q-48 22 -150 22h-341q-133 0 -198.5 -41t-65.5 -120v-443zM303 112q68 -38 197 -38h332q259 0 259 157v443q0 52 -26 87z" />
<glyph unicode="&#xd9;" horiz-adv-x="1347" d="M133 241v635q0 38 50 38q52 0 52 -38v-624q0 -178 299 -178h257q323 0 323 177v625q0 38 52 38q48 0 48 -38v-635q0 -241 -446 -241h-213q-422 0 -422 241zM547 1214q0 23 23 23q11 0 21 -10l203 -213q6 -8 6 -18q0 -25 -24 -25q-11 0 -18 9l-202 212q-9 10 -9 22z" />
<glyph unicode="&#xda;" horiz-adv-x="1347" d="M133 241v635q0 38 50 38q52 0 52 -38v-624q0 -178 299 -178h257q323 0 323 177v625q0 38 52 38q48 0 48 -38v-635q0 -241 -446 -241h-213q-422 0 -422 241zM546 996q0 10 8 18l201 213q10 10 22 10q24 0 24 -23q0 -11 -8 -22l-204 -212q-8 -9 -19 -9q-24 0 -24 25z" />
<glyph unicode="&#xdb;" horiz-adv-x="1347" d="M133 241v635q0 38 50 38q52 0 52 -38v-624q0 -178 299 -178h257q323 0 323 177v625q0 38 52 38q48 0 48 -38v-635q0 -241 -446 -241h-213q-422 0 -422 241zM441 992q0 8 6 14l192 203q15 16 34 16q20 0 35 -16l191 -203q6 -8 6 -15q0 -11 -9.5 -20t-20.5 -9q-9 0 -15 8 l-186 196l-186 -196q-8 -8 -16 -8q-11 0 -21 9.5t-10 20.5z" />
<glyph unicode="&#xdc;" horiz-adv-x="1347" d="M133 241v635q0 38 50 38q52 0 52 -38v-624q0 -178 299 -178h257q323 0 323 177v625q0 38 52 38q48 0 48 -38v-635q0 -241 -446 -241h-213q-422 0 -422 241zM480 1141q0 43 60 43q59 0 59 -43q0 -45 -59 -45q-60 0 -60 45zM746 1141q0 43 61 43q59 0 59 -43q0 -45 -59 -45 q-61 0 -61 45z" />
<glyph unicode="&#xdd;" horiz-adv-x="1143" d="M53 870q0 17 14.5 30.5t33.5 13.5t34 -15l435 -434l433 433q15 15 36 15q20 0 35 -12.5t15 -29.5q0 -14 -11 -24l-457 -458l-1 -356q-3 -39 -49 -39q-51 0 -51 39v356l-456 457q-11 10 -11 24zM444 996q0 10 8 18l201 213q10 10 22 10q24 0 24 -23q0 -11 -8 -22 l-204 -212q-8 -9 -19 -9q-24 0 -24 25z" />
<glyph unicode="&#xde;" horiz-adv-x="1357" d="M133 33v844q0 38 54 38q49 0 49 -38v-138h631q357 0 357 -191v-167q0 -201 -365 -201h-623v-147v-4q-3 -35 -52 -35q-51 0 -51 39zM236 254h641q249 0 249 134v148q0 129 -241 129h-649v-411z" />
<glyph unicode="&#xdf;" horiz-adv-x="1235" d="M144 28v675q0 200 243 200h365q355 0 355 -203v-58q0 -143 -151 -183q151 -43 151 -187v-54q0 -218 -355 -218h-262q-37 0 -37 35q0 34 37 34h286q231 0 231 141v91q0 116 -225 116h-149q-37 0 -37 37q0 38 37 38h150q224 0 224 121v101q0 122 -229 122h-399 q-143 0 -143 -133v-675q0 -39 -48 -39q-44 0 -44 39z" />
<glyph unicode="&#xe0;" horiz-adv-x="1203" d="M85 185v94q0 190 298 190h596q0 147 -182 147h-160q-27 0 -27 35q0 34 27 34h139q289 0 289 -197v-297q0 -191 -289 -191h-387q-304 0 -304 185zM178 183q0 -114 185 -114h437q179 0 179 162v168h-621q-91 0 -135.5 -28.5t-44.5 -88.5v-99zM601 990q0 23 23 23 q11 0 21 -10l203 -213q6 -8 6 -18q0 -25 -24 -25q-11 0 -18 9l-202 212q-9 10 -9 22z" />
<glyph unicode="&#xe1;" horiz-adv-x="1203" d="M85 185v94q0 190 298 190h596q0 147 -182 147h-160q-27 0 -27 35q0 34 27 34h139q289 0 289 -197v-297q0 -191 -289 -191h-387q-304 0 -304 185zM178 183q0 -114 185 -114h437q179 0 179 162v168h-621q-91 0 -135.5 -28.5t-44.5 -88.5v-99zM643 772q0 10 8 18l201 213 q10 10 22 10q24 0 24 -23q0 -11 -8 -22l-204 -212q-8 -9 -19 -9q-24 0 -24 25z" />
<glyph unicode="&#xe2;" horiz-adv-x="1203" d="M85 185v94q0 190 298 190h596q0 147 -182 147h-160q-27 0 -27 35q0 34 27 34h139q289 0 289 -197v-297q0 -191 -289 -191h-387q-304 0 -304 185zM178 183q0 -114 185 -114h437q179 0 179 162v168h-621q-91 0 -135.5 -28.5t-44.5 -88.5v-99zM519 768q0 8 6 14l192 203 q15 16 34 16q20 0 35 -16l191 -203q6 -8 6 -15q0 -11 -9.5 -20t-20.5 -9q-9 0 -15 8l-186 196l-186 -196q-8 -8 -16 -8q-11 0 -21 9.5t-10 20.5z" />
<glyph unicode="&#xe3;" horiz-adv-x="1203" d="M85 185v94q0 190 298 190h596q0 147 -182 147h-160q-27 0 -27 35q0 34 27 34h139q289 0 289 -197v-297q0 -191 -289 -191h-387q-304 0 -304 185zM178 183q0 -114 185 -114h437q179 0 179 162v168h-621q-91 0 -135.5 -28.5t-44.5 -88.5v-99zM449 912q0 35 38 35h507 q40 0 40 -33t-40 -33h-507q-38 0 -38 31z" />
<glyph unicode="&#xe4;" horiz-adv-x="1203" d="M85 185v94q0 190 298 190h596q0 147 -182 147h-160q-27 0 -27 35q0 34 27 34h139q289 0 289 -197v-297q0 -191 -289 -191h-387q-304 0 -304 185zM178 183q0 -114 185 -114h437q179 0 179 162v168h-621q-91 0 -135.5 -28.5t-44.5 -88.5v-99zM541 917q0 43 60 43 q59 0 59 -43q0 -45 -59 -45q-60 0 -60 45zM807 917q0 43 61 43q59 0 59 -43q0 -45 -59 -45q-61 0 -61 45z" />
<glyph unicode="&#xe5;" horiz-adv-x="1203" d="M85 185v94q0 190 298 190h596q0 147 -182 147h-160q-27 0 -27 35q0 34 27 34h139q289 0 289 -197v-297q0 -191 -289 -191h-387q-304 0 -304 185zM178 183q0 -114 185 -114h437q179 0 179 162v168h-621q-91 0 -135.5 -28.5t-44.5 -88.5v-99zM578 909q0 29 11.5 54.5 t30.5 44.5t44 30t53 11t53.5 -11t44.5 -30t30 -44.5t11 -54.5q0 -30 -11.5 -55t-31 -44t-44.5 -29.5t-52 -10.5q-29 0 -54.5 11t-44.5 30t-29.5 44t-10.5 54zM626 909q0 -17 7 -32t19.5 -26.5t29 -18.5t35.5 -7q39 0 65 25t26 59q0 36 -26 60.5t-65 24.5q-38 0 -64.5 -24.5 t-26.5 -60.5z" />
<glyph unicode="&#xe6;" horiz-adv-x="1627" d="M133 185v42q0 189 298 189h333v72q-5 128 -270 128h-128q-28 0 -28 35q0 34 28 34h106q307 0 339 -120q28 121 398 121q285 0 285 -174v-128q0 -41 -38 -41h-602v-155q0 -119 223 -119h195q42 0 42 -34q0 -35 -42 -35h-160q-271 0 -299 130q-27 -130 -362 -130 q-318 0 -318 185zM225 183q0 -114 185 -114h176q178 0 178 162v115h-359q-91 0 -135.5 -28t-44.5 -89v-46zM854 416h552v83q0 117 -171 117h-158q-223 0 -223 -123v-77z" />
<glyph unicode="&#xe7;" horiz-adv-x="1048" d="M133 194v298q0 193 305 193h486q41 0 41 -34q0 -35 -41 -35h-504q-195 0 -195 -120v-296q0 -131 221 -131h478q36 0 36 -37q0 -32 -36 -32h-453q-338 0 -338 194zM382 -155q0 36 34 36h85q73 0 73 82v43q0 33 46 33t46 -33v-45q0 -152 -172 -152h-78q-34 0 -34 36z" />
<glyph unicode="&#xe8;" horiz-adv-x="1188" d="M133 204v278q0 203 344 203h298q285 0 285 -173v-174q0 -41 -38 -41h-799v-109q0 -119 224 -119h145q35 0 35 -34q0 -35 -35 -35h-111q-348 0 -348 204zM223 370h749v129q0 117 -171 117h-354q-224 0 -224 -123v-123zM467 990q0 23 23 23q11 0 21 -10l203 -213 q6 -8 6 -18q0 -25 -24 -25q-11 0 -18 9l-202 212q-9 10 -9 22z" />
<glyph unicode="&#xe9;" horiz-adv-x="1188" d="M133 204v278q0 203 344 203h298q285 0 285 -173v-174q0 -41 -38 -41h-799v-109q0 -119 224 -119h145q35 0 35 -34q0 -35 -35 -35h-111q-348 0 -348 204zM223 370h749v129q0 117 -171 117h-354q-224 0 -224 -123v-123zM466 772q0 10 8 18l201 213q10 10 22 10q24 0 24 -23 q0 -11 -8 -22l-204 -212q-8 -9 -19 -9q-24 0 -24 25z" />
<glyph unicode="&#xea;" horiz-adv-x="1188" d="M133 204v278q0 203 344 203h298q285 0 285 -173v-174q0 -41 -38 -41h-799v-109q0 -119 224 -119h145q35 0 35 -34q0 -35 -35 -35h-111q-348 0 -348 204zM223 370h749v129q0 117 -171 117h-354q-224 0 -224 -123v-123zM362 768q0 8 6 14l192 203q15 16 34 16q20 0 35 -16 l191 -203q6 -8 6 -15q0 -11 -9.5 -20t-20.5 -9q-9 0 -15 8l-186 196l-186 -196q-8 -8 -16 -8q-11 0 -21 9.5t-10 20.5z" />
<glyph unicode="&#xeb;" horiz-adv-x="1188" d="M133 204v278q0 203 344 203h298q285 0 285 -173v-174q0 -41 -38 -41h-799v-109q0 -119 224 -119h145q35 0 35 -34q0 -35 -35 -35h-111q-348 0 -348 204zM223 370h749v129q0 117 -171 117h-354q-224 0 -224 -123v-123zM401 917q0 43 60 43q59 0 59 -43q0 -45 -59 -45 q-60 0 -60 45zM667 917q0 43 61 43q59 0 59 -43q0 -45 -59 -45q-61 0 -61 45z" />
<glyph unicode="&#xec;" horiz-adv-x="395" d="M62 990q0 23 23 23q11 0 21 -10l203 -213q6 -8 6 -18q0 -25 -24 -25q-11 0 -18 9l-202 212q-9 10 -9 22zM147 32v624q0 36 42 36q48 0 48 -36v-624q0 -39 -46 -39q-44 0 -44 39z" />
<glyph unicode="&#xed;" horiz-adv-x="395" d="M58 772q0 10 8 18l201 213q10 10 22 10q24 0 24 -23q0 -11 -8 -22l-204 -212q-8 -9 -19 -9q-24 0 -24 25zM147 32v624q0 36 42 36q48 0 48 -36v-624q0 -39 -46 -39q-44 0 -44 39z" />
<glyph unicode="&#xee;" horiz-adv-x="395" d="M-37 768q0 8 6 14l192 203q15 16 34 16q20 0 35 -16l191 -203q6 -8 6 -15q0 -11 -9.5 -20t-20.5 -9q-9 0 -15 8l-186 196l-186 -196q-8 -8 -16 -8q-11 0 -21 9.5t-10 20.5zM147 32v624q0 36 42 36q48 0 48 -36v-624q0 -39 -46 -39q-44 0 -44 39z" />
<glyph unicode="&#xef;" horiz-adv-x="395" d="M2 917q0 43 60 43q59 0 59 -43q0 -45 -59 -45q-60 0 -60 45zM147 32v624q0 36 42 36q48 0 48 -36v-624q0 -39 -46 -39q-44 0 -44 39zM268 917q0 43 61 43q59 0 59 -43q0 -45 -59 -45q-61 0 -61 45z" />
<glyph unicode="&#xf0;" horiz-adv-x="1192" d="M133 200v287q0 198 364 198h345q26 0 26 -35q0 -34 -32 -34h-365q-247 0 -247 -131v-288q0 -128 216 -128l295 -1q232 -1 232 141v505q0 120 -229 120h-125q-39 0 -39 35q0 34 39 34h107q339 0 339 -208v-493q0 -202 -361 -202h-235q-330 0 -330 200z" />
<glyph unicode="&#xf1;" d="M133 32v474q0 179 330 179h255q330 0 330 -177v-476q0 -39 -46 -39q-47 0 -47 39v477q0 107 -199 107h-329q-203 0 -203 -108v-476q0 -39 -44 -39q-47 0 -47 39zM298 912q0 35 38 35h507q40 0 40 -33t-40 -33h-507q-38 0 -38 31z" />
<glyph unicode="&#xf2;" d="M133 200v279q0 206 333 206h262q320 0 320 -205v-280q0 -200 -320 -200h-262q-333 0 -333 200zM224 200q0 -131 223 -131h302q204 0 204 131v292q0 124 -206 124h-301q-222 0 -222 -137v-279zM464 990q0 23 23 23q11 0 21 -10l203 -213q6 -8 6 -18q0 -25 -24 -25 q-11 0 -18 9l-202 212q-9 10 -9 22z" />
<glyph unicode="&#xf3;" d="M133 200v279q0 206 333 206h262q320 0 320 -205v-280q0 -200 -320 -200h-262q-333 0 -333 200zM224 200q0 -131 223 -131h302q204 0 204 131v292q0 124 -206 124h-301q-222 0 -222 -137v-279zM463 772q0 10 8 18l201 213q10 10 22 10q24 0 24 -23q0 -11 -8 -22l-204 -212 q-8 -9 -19 -9q-24 0 -24 25z" />
<glyph unicode="&#xf4;" d="M133 200v279q0 206 333 206h262q320 0 320 -205v-280q0 -200 -320 -200h-262q-333 0 -333 200zM224 200q0 -131 223 -131h302q204 0 204 131v292q0 124 -206 124h-301q-222 0 -222 -137v-279zM358 768q0 8 6 14l192 203q15 16 34 16q20 0 35 -16l191 -203q6 -8 6 -15 q0 -11 -9.5 -20t-20.5 -9q-9 0 -15 8l-186 196l-186 -196q-8 -8 -16 -8q-11 0 -21 9.5t-10 20.5z" />
<glyph unicode="&#xf5;" d="M133 200v279q0 206 333 206h262q320 0 320 -205v-280q0 -200 -320 -200h-262q-333 0 -333 200zM224 200q0 -131 223 -131h302q204 0 204 131v292q0 124 -206 124h-301q-222 0 -222 -137v-279zM298 912q0 35 38 35h507q40 0 40 -33t-40 -33h-507q-38 0 -38 31z" />
<glyph unicode="&#xf6;" d="M133 200v279q0 206 333 206h262q320 0 320 -205v-280q0 -200 -320 -200h-262q-333 0 -333 200zM224 200q0 -131 223 -131h302q204 0 204 131v292q0 124 -206 124h-301q-222 0 -222 -137v-279zM397 917q0 43 60 43q59 0 59 -43q0 -45 -59 -45q-60 0 -60 45zM663 917 q0 43 61 43q59 0 59 -43q0 -45 -59 -45q-61 0 -61 45z" />
<glyph unicode="&#xf7;" horiz-adv-x="611" d="M24 374q0 32 34 32h502q28 0 28 -30q0 -33 -28 -33h-502q-34 0 -34 31zM233 187q0 50 69 50q73 0 73 -50t-71 -50t-71 50zM233 563q0 50 69 50q73 0 73 -50t-71 -50t-71 50z" />
<glyph unicode="&#xf8;" d="M133 200v279q0 206 333 206h262q320 0 320 -205v-280q0 -200 -320 -200h-262q-333 0 -333 200zM224 200q0 -41 21 -69l636 464q-50 21 -134 21h-301q-222 0 -222 -137v-279zM303 90q52 -21 144 -21h302q204 0 204 131v292q0 34 -18 60z" />
<glyph unicode="&#xf9;" horiz-adv-x="1207" d="M141 190v470q0 38 45 38q46 0 46 -38v-470q0 -121 239 -121h271q234 0 234 119v472q0 36 48 36q45 0 45 -36v-470q0 -190 -349 -190h-227q-352 0 -352 190zM477 990q0 23 23 23q11 0 21 -10l203 -213q6 -8 6 -18q0 -25 -24 -25q-11 0 -18 9l-202 212q-9 10 -9 22z" />
<glyph unicode="&#xfa;" horiz-adv-x="1207" d="M141 190v470q0 38 45 38q46 0 46 -38v-470q0 -121 239 -121h271q234 0 234 119v472q0 36 48 36q45 0 45 -36v-470q0 -190 -349 -190h-227q-352 0 -352 190zM476 772q0 10 8 18l201 213q10 10 22 10q24 0 24 -23q0 -11 -8 -22l-204 -212q-8 -9 -19 -9q-24 0 -24 25z" />
<glyph unicode="&#xfb;" horiz-adv-x="1207" d="M141 190v470q0 38 45 38q46 0 46 -38v-470q0 -121 239 -121h271q234 0 234 119v472q0 36 48 36q45 0 45 -36v-470q0 -190 -349 -190h-227q-352 0 -352 190zM371 768q0 8 6 14l192 203q15 16 34 16q20 0 35 -16l191 -203q6 -8 6 -15q0 -11 -9.5 -20t-20.5 -9q-9 0 -15 8 l-186 196l-186 -196q-8 -8 -16 -8q-11 0 -21 9.5t-10 20.5z" />
<glyph unicode="&#xfc;" horiz-adv-x="1207" d="M141 190v470q0 38 45 38q46 0 46 -38v-470q0 -121 239 -121h271q234 0 234 119v472q0 36 48 36q45 0 45 -36v-470q0 -190 -349 -190h-227q-352 0 -352 190zM410 917q0 43 60 43q59 0 59 -43q0 -45 -59 -45q-60 0 -60 45zM676 917q0 43 61 43q59 0 59 -43q0 -45 -59 -45 q-61 0 -61 45z" />
<glyph unicode="&#xfd;" horiz-adv-x="1187" d="M133 190v470q0 36 46 36q45 0 45 -36v-470q0 -121 209 -121h530v591q0 36 45 36q46 0 46 -36v-685q0 -182 -280 -182h-165q-32 0 -32 35q0 34 32 34h176q178 0 178 113v25h-505q-325 0 -325 190zM466 772q0 10 8 18l201 213q10 10 22 10q24 0 24 -23q0 -11 -8 -22 l-204 -212q-8 -9 -19 -9q-24 0 -24 25z" />
<glyph unicode="&#xfe;" horiz-adv-x="1192" d="M133 -184v1061q0 38 45 38q46 0 46 -38v-235q79 43 237 43h253q345 0 345 -186v-301q0 -198 -307 -198h-528v-184q0 -39 -46 -39q-45 0 -45 39zM224 69h550q193 0 193 128v299q0 120 -230 120h-291q-222 0 -222 -123v-424z" />
<glyph unicode="&#xff;" horiz-adv-x="1187" d="M133 190v470q0 36 46 36q45 0 45 -36v-470q0 -121 209 -121h530v591q0 36 45 36q46 0 46 -36v-685q0 -182 -280 -182h-165q-32 0 -32 35q0 34 32 34h176q178 0 178 113v25h-505q-325 0 -325 190zM400 917q0 43 60 43q59 0 59 -43q0 -45 -59 -45q-60 0 -60 45zM666 917 q0 43 61 43q59 0 59 -43q0 -45 -59 -45q-61 0 -61 45z" />
<glyph unicode="&#x152;" horiz-adv-x="1428" d="M138 226v454q0 229 371 229h70q274 0 326 -121q51 121 305 121h84q35 0 35 -37q0 -34 -39 -34h-60q-282 0 -282 -144v-208h343q38 0 38 -36q0 -37 -38 -37h-340v-198q0 -141 269 -141h71q38 0 38 -37t-38 -37h-94q-250 0 -300 143q-51 -143 -314 -143h-69 q-376 0 -376 226zM241 231q0 -157 285 -157h42q285 0 285 157v443q0 161 -286 161h-36q-290 0 -290 -161v-443z" />
<glyph unicode="&#x153;" horiz-adv-x="1522" d="M133 200v279q0 206 346 206q259 0 291 -113q28 114 323 114q149 0 222.5 -42.5t73.5 -131.5v-172q0 -33 -30 -33h-545v-107q0 -131 246 -131h107q38 0 38 -36q0 -33 -38 -33h-72q-285 0 -320 119q-41 -119 -308 -119q-334 0 -334 200zM225 200q0 -131 206 -131h62 q115 0 172.5 31.5t57.5 99.5v292q0 124 -193 124h-92q-213 0 -213 -137v-279zM814 380h487v119q0 120 -179 120h-56q-252 0 -252 -126v-113z" />
<glyph unicode="&#x178;" horiz-adv-x="1117" d="M53 870q0 17 14.5 30.5t33.5 13.5t34 -15l435 -434l433 433q15 15 36 15q20 0 35 -12.5t15 -29.5q0 -14 -11 -24l-457 -458l-1 -356q-3 -39 -49 -39q-51 0 -51 39v356l-456 457q-11 10 -11 24zM365 1141q0 43 60 43q59 0 59 -43q0 -45 -59 -45q-60 0 -60 45zM631 1141 q0 43 61 43q59 0 59 -43q0 -45 -59 -45q-61 0 -61 45z" />
<glyph unicode="&#x2c6;" horiz-adv-x="597" d="M66 768q0 8 6 14l192 203q15 16 34 16q20 0 35 -16l191 -203q6 -8 6 -15q0 -11 -9.5 -20t-20.5 -9q-9 0 -15 8l-186 196l-186 -196q-8 -8 -16 -8q-11 0 -21 9.5t-10 20.5z" />
<glyph unicode="&#x2dc;" horiz-adv-x="872" d="M143 912q0 35 38 35h507q40 0 40 -33t-40 -33h-507q-38 0 -38 31z" />
<glyph unicode="&#x2000;" horiz-adv-x="682" />
<glyph unicode="&#x2001;" horiz-adv-x="1365" />
<glyph unicode="&#x2002;" horiz-adv-x="682" />
<glyph unicode="&#x2003;" horiz-adv-x="1365" />
<glyph unicode="&#x2004;" horiz-adv-x="455" />
<glyph unicode="&#x2005;" horiz-adv-x="341" />
<glyph unicode="&#x2006;" horiz-adv-x="227" />
<glyph unicode="&#x2007;" horiz-adv-x="227" />
<glyph unicode="&#x2008;" horiz-adv-x="170" />
<glyph unicode="&#x2009;" horiz-adv-x="273" />
<glyph unicode="&#x200a;" horiz-adv-x="75" />
<glyph unicode="&#x2010;" horiz-adv-x="852" d="M143 374q0 32 34 32h502q28 0 28 -30q0 -33 -28 -33h-502q-34 0 -34 31z" />
<glyph unicode="&#x2011;" horiz-adv-x="852" d="M143 374q0 32 34 32h502q28 0 28 -30q0 -33 -28 -33h-502q-34 0 -34 31z" />
<glyph unicode="&#x2012;" horiz-adv-x="852" d="M143 374q0 32 34 32h502q28 0 28 -30q0 -33 -28 -33h-502q-34 0 -34 31z" />
<glyph unicode="&#x2013;" horiz-adv-x="988" d="M144 374q0 32 34 32h636q28 0 28 -30q0 -33 -28 -33h-636q-34 0 -34 31z" />
<glyph unicode="&#x2014;" horiz-adv-x="1207" d="M145 374q0 32 34 32h854q28 0 28 -30q0 -33 -28 -33h-854q-34 0 -34 31z" />
<glyph unicode="&#x2018;" horiz-adv-x="255" d="M46 887q0 17 12.5 25.5t29.5 8.5q20 0 38.5 -11.5t22.5 -33.5l42 -227q0 -2 0.5 -4.5t0.5 -4.5q0 -17 -10.5 -24.5t-24.5 -7.5t-30.5 10t-21.5 31l-57 227q-2 8 -2 11z" />
<glyph unicode="&#x2019;" horiz-adv-x="258" d="M63 640q0 6 1 9l42 227q4 22 22.5 33.5t37.5 11.5q17 0 30 -8.5t13 -25.5q0 -3 -2 -11l-57 -227q-5 -21 -21 -31t-32 -10q-14 0 -24 7.5t-10 24.5z" />
<glyph unicode="&#x201a;" horiz-adv-x="186" d="M59 -110q0 6 1 9l42 226q4 22 22.5 33.5t37.5 11.5q17 0 30 -8t13 -25q0 -4 -2 -12l-57 -226q-5 -21 -21 -31t-32 -10q-14 0 -24 7.5t-10 24.5z" />
<glyph unicode="&#x201c;" horiz-adv-x="533" d="M92 887q0 17 12.5 25.5t29.5 8.5q20 0 38.5 -11.5t22.5 -33.5l42 -227q0 -2 0.5 -4.5t0.5 -4.5q0 -17 -10.5 -24.5t-24.5 -7.5t-30.5 10t-21.5 31l-57 227q-2 8 -2 11zM283 887q0 17 12.5 25.5t29.5 8.5q20 0 38.5 -11.5t22.5 -33.5l42 -227q0 -2 0.5 -4.5t0.5 -4.5 q0 -17 -10.5 -24.5t-24.5 -7.5q-15 0 -31 10t-21 31l-57 227q-2 8 -2 11z" />
<glyph unicode="&#x201d;" horiz-adv-x="532" d="M102 640q0 6 1 9l42 227q4 22 22.5 33.5t37.5 11.5q17 0 30 -8.5t13 -25.5q0 -3 -2 -11l-57 -227q-5 -21 -21 -31t-32 -10q-14 0 -24 7.5t-10 24.5zM292 640q0 6 1 9l42 227q4 22 22.5 33.5t37.5 11.5q17 0 30 -8.5t13 -25.5q0 -3 -2 -11l-57 -227q-5 -21 -21 -31 t-32 -10q-14 0 -24 7.5t-10 24.5z" />
<glyph unicode="&#x201e;" horiz-adv-x="437" d="M59 -110q0 6 1 9l42 226q4 22 22.5 33.5t37.5 11.5q17 0 30 -8t13 -25q0 -4 -2 -12l-57 -226q-5 -21 -21 -31t-32 -10q-14 0 -24 7.5t-10 24.5zM282 -110q0 6 1 9l42 226q4 22 22.5 33.5t37.5 11.5q17 0 30 -8t13 -25q0 -4 -2 -12l-57 -226q-5 -21 -21 -31t-32 -10 q-14 0 -24 7.5t-10 24.5z" />
<glyph unicode="&#x2022;" horiz-adv-x="659" d="M139 299v146q0 72 116 72h153q108 0 108 -65v-153q0 -69 -107 -69h-153q-117 0 -117 69z" />
<glyph unicode="&#x2026;" horiz-adv-x="1502" d="M143 53q0 49 71 49q72 0 72 -49q0 -52 -72 -52q-71 0 -71 52zM684 53q0 49 71 49q72 0 72 -49q0 -52 -72 -52q-71 0 -71 52zM1215 53q0 49 71 49q72 0 72 -49q0 -52 -72 -52q-71 0 -71 52z" />
<glyph unicode="&#x202f;" horiz-adv-x="273" />
<glyph unicode="&#x2039;" horiz-adv-x="461" d="M16 398q0 12 4.5 19.5t14.5 15.5l279 215q13 10 26 10q17 0 29 -13.5t12 -30.5q0 -9 -4 -18t-15 -17l-242 -182l242 -178q21 -15 21 -37q0 -18 -13 -31.5t-31 -13.5q-6 0 -12.5 2t-12.5 7l-279 217q-19 15 -19 35z" />
<glyph unicode="&#x203a;" horiz-adv-x="460" d="M77 182q0 21 20 37l242 178l-242 182q-19 14 -19 34q0 17 12.5 30.5t29.5 13.5q12 0 26 -9l278 -215q9 -8 14.5 -16t5.5 -19q0 -20 -20 -35l-278 -217q-13 -10 -26 -10q-18 0 -30.5 14t-12.5 32z" />
<glyph unicode="&#x205f;" horiz-adv-x="341" />
<glyph unicode="&#x20ac;" horiz-adv-x="1213" d="M103 328q0 31 31 31h58v174h-58q-31 0 -31 36q0 29 31 29h58v108q0 203 353 203h565q31 0 31 -36q0 -38 -31 -38h-561q-257 0 -257 -129v-108h626q34 0 34 -33q0 -32 -34 -32h-626v-174h491q28 0 28 -33q0 -31 -28 -31h-491v-74q0 -147 280 -147h581q32 0 32 -37t-32 -37 h-600q-361 0 -361 218v77h-58q-31 0 -31 33z" />
<glyph unicode="&#x2122;" horiz-adv-x="1502" d="M109 875q0 34 32 34h339q31 0 31 -34q0 -40 -31 -40h-115v-439q0 -38 -50 -38q-51 0 -51 38v439h-123q-32 0 -32 40zM634 396v458q0 60 58 60q44 0 77 -41l227 -319l225 327q27 33 72 33q61 0 61 -63v-455q0 -38 -53 -38q-46 0 -46 38v388l-181 -276q-31 -40 -80 -40 q-52 0 -83 40l-178 273v-385q0 -38 -49 -38q-50 0 -50 38z" />
<glyph unicode="&#x25fc;" horiz-adv-x="690" d="M0 0v690h690v-690h-690z" />
<glyph unicode="&#xfb01;" horiz-adv-x="995" d="M142 29v671q0 200 288 200h356q80 0 80 -66q0 -60 -59 -60q-63 0 -74 59h-330q-170 0 -170 -133v-18h341q28 0 28 -34q0 -35 -28 -35h-341v-584q0 -39 -45 -39q-46 0 -46 39zM755 29v624q0 36 42 36q48 0 48 -36v-624q0 -39 -46 -39q-44 0 -44 39z" />
<glyph unicode="&#xfb02;" horiz-adv-x="1011" d="M142 32v671q0 200 288 200h304q129 0 129 -98v-773q0 -39 -44 -39q-47 0 -47 39v774q0 30 -35 30h-334q-170 0 -170 -133v-18h279q28 0 28 -34q0 -35 -28 -35h-279v-584q0 -39 -45 -39q-46 0 -46 39z" />
</font>
</defs>
</svg>
